# xmcd
#
# Track frame offsets:
#	150
#	14377
#	35035
#	54495
#	73529
#	96528
#	115064
#	135270
#	163303
#	190787
#
# Disc length: 3127 seconds
#
# Revision: 0
# Processed by: cddbd v1.5.1PL2 Copyright (c) Steve Scherf et al.
# Submitted via: dBpowerAMP V4.0
#
DISCID=880c350a
DTITLE=Hippies In Trance - H.I.T. Am11.11.Im 11er
DYEAR=2000
DGENRE=Blues
TTITLE0=Carol
TTITLE1=Eldorado Cadillac
TTITLE2=Hoochie Coochie Man
TTITLE3=Linda Lou
TTITLE4=Gangster Of Love
TTITLE5=Everyday I Have The Blues
TTITLE6=Honey Mama
TTITLE7=Red House
TTITLE8=Checkin' Up On My Baby
TTITLE9=Rock Me
EXTD=H.I.T.s House
EXTT0=
EXTT1=
EXTT2=
EXTT3=
EXTT4=
EXTT5=
EXTT6=
EXTT7=
EXTT8=
EXTT9=
PLAYORDER=
